<svg id="visual" viewBox="0 0 1920 1080" width="1920" height="1080" xmlns="http://www.w3.org/2000/svg" xmlns:xlink="http://www.w3.org/1999/xlink" version="1.1"><rect x="0" y="0" width="1920" height="1080" fill="#E7E3DA"></rect><defs><linearGradient id="grad1_0" x1="43.8%" y1="100%" x2="100%" y2="0%"><stop offset="14.444444444444446%" stop-color="#fd410d" stop-opacity="1"></stop><stop offset="85.55555555555554%" stop-color="#fd410d" stop-opacity="1"></stop></linearGradient></defs><defs><linearGradient id="grad1_1" x1="43.8%" y1="100%" x2="100%" y2="0%"><stop offset="14.444444444444446%" stop-color="#fd410d" stop-opacity="1"></stop><stop offset="85.55555555555554%" stop-color="#e7e3da" stop-opacity="1"></stop></linearGradient></defs><defs><linearGradient id="grad2_0" x1="0%" y1="100%" x2="56.3%" y2="0%"><stop offset="14.444444444444446%" stop-color="#fd410d" stop-opacity="1"></stop><stop offset="85.55555555555554%" stop-color="#fd410d" stop-opacity="1"></stop></linearGradient></defs><defs><linearGradient id="grad2_1" x1="0%" y1="100%" x2="56.3%" y2="0%"><stop offset="14.444444444444446%" stop-color="#e7e3da" stop-opacity="1"></stop><stop offset="85.55555555555554%" stop-color="#fd410d" stop-opacity="1"></stop></linearGradient></defs><g transform="translate(1920, 1080)"><path d="M-648 0C-632.6 -116 -617.1 -231.9 -561.2 -324C-505.2 -416.1 -408.8 -484.3 -308.5 -534.3C-208.2 -584.4 -104.1 -616.2 0 -648L0 0Z" fill="#eca660"></path><path d="M-324 0C-316.3 -58 -308.6 -116 -280.6 -162C-252.6 -208 -204.4 -242.2 -154.3 -267.2C-104.1 -292.2 -52.1 -308.1 0 -324L0 0Z" fill="#fd410d"></path></g><g transform="translate(0, 0)"><path d="M648 0C638.2 125.8 628.5 251.5 561.2 324C493.9 396.5 369.1 415.6 266 460.7C162.9 505.8 81.4 576.9 0 648L0 0Z" fill="#eca660"></path><path d="M324 0C319.1 62.9 314.2 125.8 280.6 162C247 198.2 184.6 207.8 133 230.4C81.4 252.9 40.7 288.5 0 324L0 0Z" fill="#fd410d"></path></g></svg>